# xmcd
#
# Track frame offsets:
#	150
#	17217
#	34332
#	52770
#	71235
#	91962
#	111047
#	126915
#	146520
#	163210
#	179687
#	198535
#	219467
#	236255
#	251205
#	267372
#	287357
#	305927
#	324835
#
# Disc length: 4616 seconds
#
# Revision: 4
# Processed by: cddbd v1.5PL3 Copyright (c) Steve Scherf et al.
# Submitted via: CDex 1.50Beta5
#
DISCID=21120613
DTITLE=Various Artist - Step
DYEAR=2002
DGENRE=Soundtrack
TTITLE0=Foolish
TTITLE1=Hot In Herre
TTITLE2=Always On Time
TTITLE3=Video
TTITLE4=Rainy Dayz
TTITLE5=Trying Girls Out
TTITLE6=Good Times
TTITLE7=Fight Music
TTITLE8=When You Look At Me
TTITLE9=Straight Up
TTITLE10=Thong Song
TTITLE11=Golden Boys
TTITLE12=Candy
TTITLE13=Gotta Tell You
TTITLE14=Caramel
TTITLE15=Pass You By
TTITLE16=Back Lady
TTITLE17=Halfcrazy
TTITLE18=Hey Lover
EXTD=
EXTT0=
EXTT1=
EXTT2=
EXTT3=
EXTT4=
EXTT5=
EXTT6=
EXTT7=
EXTT8=
EXTT9=
EXTT10=
EXTT11=
EXTT12=
EXTT13=
EXTT14=
EXTT15=
EXTT16=
EXTT17=
EXTT18=
PLAYORDER=
